<mxfile host="app.diagrams.net" modified="2021-10-31T22:26:43.339Z" agent="5.0 (X11)" etag="5GJEcXlOc8iu0P6fyCFZ" version="15.6.3" type="github">
  <diagram id="kgpKYQtTHZ0yAKxKKP6v" name="Page-1">
    <mxGraphModel dx="2523" dy="852" grid="1" gridSize="10" guides="1" tooltips="1" connect="1" arrows="1" fold="1" page="1" pageScale="1" pageWidth="850" pageHeight="1100" math="0" shadow="0">
      <root>
        <mxCell id="0" />
        <mxCell id="1" parent="0" />
        <mxCell id="zELeLXxtpLHe7ZYoBTOC-49" value="if(exception)" style="shape=umlFrame;whiteSpace=wrap;html=1;width=80;height=30;" vertex="1" parent="1">
          <mxGeometry x="-190" y="880" width="420" height="130" as="geometry" />
        </mxCell>
        <mxCell id="zELeLXxtpLHe7ZYoBTOC-13" value="Loop" style="shape=umlFrame;whiteSpace=wrap;html=1;width=57;height=17;" vertex="1" parent="1">
          <mxGeometry x="-347" y="400" width="1117" height="620" as="geometry" />
        </mxCell>
        <mxCell id="zELeLXxtpLHe7ZYoBTOC-17" value="for(record in records)" style="shape=umlFrame;whiteSpace=wrap;html=1;width=60;height=40;" vertex="1" parent="1">
          <mxGeometry x="-100" y="470" width="730" height="400" as="geometry" />
        </mxCell>
        <mxCell id="3nuBFxr9cyL0pnOWT2aG-1" value="ElasticClient" style="shape=umlLifeline;perimeter=lifelinePerimeter;container=1;collapsible=0;recursiveResize=0;rounded=0;shadow=0;strokeWidth=1;" parent="1" vertex="1">
          <mxGeometry x="120" y="80" width="100" height="960" as="geometry" />
        </mxCell>
        <mxCell id="6yEHF6eIrHNhduy1DD2R-26" value="" style="points=[];perimeter=orthogonalPerimeter;rounded=0;shadow=0;strokeWidth=1;" parent="3nuBFxr9cyL0pnOWT2aG-1" vertex="1">
          <mxGeometry x="45" y="60" width="10" height="60" as="geometry" />
        </mxCell>
        <mxCell id="zELeLXxtpLHe7ZYoBTOC-6" value="" style="points=[];perimeter=orthogonalPerimeter;rounded=0;shadow=0;strokeWidth=1;" vertex="1" parent="3nuBFxr9cyL0pnOWT2aG-1">
          <mxGeometry x="45" y="120" width="10" height="60" as="geometry" />
        </mxCell>
        <mxCell id="zELeLXxtpLHe7ZYoBTOC-7" value="" style="points=[];perimeter=orthogonalPerimeter;rounded=0;shadow=0;strokeWidth=1;" vertex="1" parent="3nuBFxr9cyL0pnOWT2aG-1">
          <mxGeometry x="45" y="180" width="10" height="40" as="geometry" />
        </mxCell>
        <mxCell id="zELeLXxtpLHe7ZYoBTOC-11" value="" style="points=[];perimeter=orthogonalPerimeter;rounded=0;shadow=0;strokeWidth=1;" vertex="1" parent="3nuBFxr9cyL0pnOWT2aG-1">
          <mxGeometry x="45" y="220" width="10" height="680" as="geometry" />
        </mxCell>
        <mxCell id="zELeLXxtpLHe7ZYoBTOC-1" value="ElasticInterfaceProxy" style="shape=umlLifeline;perimeter=lifelinePerimeter;container=1;collapsible=0;recursiveResize=0;rounded=0;shadow=0;strokeWidth=1;" vertex="1" parent="1">
          <mxGeometry x="330" y="140" width="110" height="900" as="geometry" />
        </mxCell>
        <mxCell id="zELeLXxtpLHe7ZYoBTOC-18" value="" style="points=[];perimeter=orthogonalPerimeter;rounded=0;shadow=0;strokeWidth=1;" vertex="1" parent="zELeLXxtpLHe7ZYoBTOC-1">
          <mxGeometry x="50" y="360" width="10" height="90" as="geometry" />
        </mxCell>
        <mxCell id="zELeLXxtpLHe7ZYoBTOC-27" value="" style="points=[];perimeter=orthogonalPerimeter;rounded=0;shadow=0;strokeWidth=1;" vertex="1" parent="zELeLXxtpLHe7ZYoBTOC-1">
          <mxGeometry x="50" y="50" width="10" height="190" as="geometry" />
        </mxCell>
        <mxCell id="zELeLXxtpLHe7ZYoBTOC-39" value="" style="points=[];perimeter=orthogonalPerimeter;rounded=0;shadow=0;strokeWidth=1;" vertex="1" parent="zELeLXxtpLHe7ZYoBTOC-1">
          <mxGeometry x="50.000000000000014" y="530" width="10" height="90" as="geometry" />
        </mxCell>
        <mxCell id="zELeLXxtpLHe7ZYoBTOC-3" value="new ElasticInterfaceProxy()" style="html=1;verticalAlign=bottom;endArrow=block;rounded=0;entryX=-0.006;entryY=0.008;entryDx=0;entryDy=0;entryPerimeter=0;" edge="1" parent="1" source="6yEHF6eIrHNhduy1DD2R-26" target="zELeLXxtpLHe7ZYoBTOC-1">
          <mxGeometry width="80" relative="1" as="geometry">
            <mxPoint x="180" y="140" as="sourcePoint" />
            <mxPoint x="260" y="140" as="targetPoint" />
          </mxGeometry>
        </mxCell>
        <mxCell id="zELeLXxtpLHe7ZYoBTOC-4" value="KafkaConsumer" style="shape=umlLifeline;perimeter=lifelinePerimeter;container=1;collapsible=0;recursiveResize=0;rounded=0;shadow=0;strokeWidth=1;" vertex="1" parent="1">
          <mxGeometry x="-290" y="210" width="110" height="830" as="geometry" />
        </mxCell>
        <mxCell id="zELeLXxtpLHe7ZYoBTOC-12" value="" style="points=[];perimeter=orthogonalPerimeter;rounded=0;shadow=0;strokeWidth=1;" vertex="1" parent="zELeLXxtpLHe7ZYoBTOC-4">
          <mxGeometry x="50" y="140" width="10" height="40" as="geometry" />
        </mxCell>
        <mxCell id="zELeLXxtpLHe7ZYoBTOC-14" value="" style="points=[];perimeter=orthogonalPerimeter;rounded=0;shadow=0;strokeWidth=1;" vertex="1" parent="zELeLXxtpLHe7ZYoBTOC-4">
          <mxGeometry x="50" y="205" width="10" height="40" as="geometry" />
        </mxCell>
        <mxCell id="zELeLXxtpLHe7ZYoBTOC-15" value="poll(duration)" style="html=1;verticalAlign=bottom;endArrow=block;rounded=0;entryX=1.038;entryY=0.172;entryDx=0;entryDy=0;entryPerimeter=0;" edge="1" parent="zELeLXxtpLHe7ZYoBTOC-4" target="zELeLXxtpLHe7ZYoBTOC-14">
          <mxGeometry x="0.5965" width="80" relative="1" as="geometry">
            <mxPoint x="455" y="211.87999999999988" as="sourcePoint" />
            <mxPoint x="110" y="205" as="targetPoint" />
            <mxPoint as="offset" />
          </mxGeometry>
        </mxCell>
        <mxCell id="zELeLXxtpLHe7ZYoBTOC-5" value="Jedis" style="shape=umlLifeline;perimeter=lifelinePerimeter;container=1;collapsible=0;recursiveResize=0;rounded=0;shadow=0;strokeWidth=1;" vertex="1" parent="1">
          <mxGeometry x="-130" y="270" width="110" height="770" as="geometry" />
        </mxCell>
        <mxCell id="zELeLXxtpLHe7ZYoBTOC-46" value="" style="points=[];perimeter=orthogonalPerimeter;rounded=0;shadow=0;strokeWidth=1;" vertex="1" parent="zELeLXxtpLHe7ZYoBTOC-5">
          <mxGeometry x="50" y="530" width="10" height="50" as="geometry" />
        </mxCell>
        <mxCell id="zELeLXxtpLHe7ZYoBTOC-8" value="new Jedis(hostname,port)" style="html=1;verticalAlign=bottom;endArrow=block;rounded=0;entryX=1.019;entryY=0.009;entryDx=0;entryDy=0;entryPerimeter=0;" edge="1" parent="1" source="zELeLXxtpLHe7ZYoBTOC-7" target="zELeLXxtpLHe7ZYoBTOC-5">
          <mxGeometry width="80" relative="1" as="geometry">
            <mxPoint x="60" y="380" as="sourcePoint" />
            <mxPoint x="110" y="270" as="targetPoint" />
          </mxGeometry>
        </mxCell>
        <mxCell id="zELeLXxtpLHe7ZYoBTOC-9" value="new KafkaConsumer&amp;lt;String,String&amp;gt;(props)" style="html=1;verticalAlign=bottom;endArrow=block;rounded=0;entryX=1;entryY=0;entryDx=0;entryDy=0;entryPerimeter=0;" edge="1" parent="1" source="zELeLXxtpLHe7ZYoBTOC-6" target="zELeLXxtpLHe7ZYoBTOC-4">
          <mxGeometry width="80" relative="1" as="geometry">
            <mxPoint x="70" y="210" as="sourcePoint" />
            <mxPoint x="150" y="210" as="targetPoint" />
          </mxGeometry>
        </mxCell>
        <mxCell id="zELeLXxtpLHe7ZYoBTOC-10" value="subscribe(topics)" style="html=1;verticalAlign=bottom;endArrow=block;rounded=0;entryX=1.038;entryY=0.172;entryDx=0;entryDy=0;entryPerimeter=0;" edge="1" parent="1" source="zELeLXxtpLHe7ZYoBTOC-11" target="zELeLXxtpLHe7ZYoBTOC-12">
          <mxGeometry x="0.5965" width="80" relative="1" as="geometry">
            <mxPoint x="165" y="350" as="sourcePoint" />
            <mxPoint x="-180" y="350" as="targetPoint" />
            <mxPoint as="offset" />
          </mxGeometry>
        </mxCell>
        <mxCell id="zELeLXxtpLHe7ZYoBTOC-16" value="records" style="html=1;verticalAlign=bottom;endArrow=open;dashed=1;endSize=8;rounded=0;" edge="1" parent="1">
          <mxGeometry x="0.7215" relative="1" as="geometry">
            <mxPoint x="-230" y="451" as="sourcePoint" />
            <mxPoint x="165" y="451" as="targetPoint" />
            <mxPoint as="offset" />
          </mxGeometry>
        </mxCell>
        <mxCell id="zELeLXxtpLHe7ZYoBTOC-19" value="findCodeLabelErrorCredentials(...)" style="html=1;verticalAlign=bottom;endArrow=block;rounded=0;exitX=0.952;exitY=0.296;exitDx=0;exitDy=0;exitPerimeter=0;" edge="1" parent="1" source="zELeLXxtpLHe7ZYoBTOC-11" target="zELeLXxtpLHe7ZYoBTOC-18">
          <mxGeometry width="80" relative="1" as="geometry">
            <mxPoint x="250" y="500" as="sourcePoint" />
            <mxPoint x="330" y="500" as="targetPoint" />
          </mxGeometry>
        </mxCell>
        <mxCell id="zELeLXxtpLHe7ZYoBTOC-20" value="Kafka Event" style="html=1;verticalAlign=bottom;startArrow=circle;startFill=1;endArrow=open;startSize=6;endSize=8;rounded=0;" edge="1" parent="1">
          <mxGeometry width="80" relative="1" as="geometry">
            <mxPoint x="-370" y="435" as="sourcePoint" />
            <mxPoint x="-240" y="434.65999999999997" as="targetPoint" />
          </mxGeometry>
        </mxCell>
        <mxCell id="zELeLXxtpLHe7ZYoBTOC-21" value="(Remote)&#xa;ElasticInterface" style="shape=umlLifeline;perimeter=lifelinePerimeter;container=1;collapsible=0;recursiveResize=0;rounded=0;shadow=0;strokeWidth=1;" vertex="1" parent="1">
          <mxGeometry x="560" y="278" width="110" height="762" as="geometry" />
        </mxCell>
        <mxCell id="zELeLXxtpLHe7ZYoBTOC-22" value="" style="points=[];perimeter=orthogonalPerimeter;rounded=0;shadow=0;strokeWidth=1;" vertex="1" parent="zELeLXxtpLHe7ZYoBTOC-21">
          <mxGeometry x="50" y="242" width="10" height="48" as="geometry" />
        </mxCell>
        <mxCell id="zELeLXxtpLHe7ZYoBTOC-44" value="" style="points=[];perimeter=orthogonalPerimeter;rounded=0;shadow=0;strokeWidth=1;" vertex="1" parent="zELeLXxtpLHe7ZYoBTOC-21">
          <mxGeometry x="50" y="412" width="10" height="48" as="geometry" />
        </mxCell>
        <mxCell id="zELeLXxtpLHe7ZYoBTOC-24" value="dispatch" style="html=1;verticalAlign=bottom;endArrow=block;rounded=0;entryX=0.997;entryY=0.003;entryDx=0;entryDy=0;entryPerimeter=0;" edge="1" parent="1" source="zELeLXxtpLHe7ZYoBTOC-25" target="zELeLXxtpLHe7ZYoBTOC-21">
          <mxGeometry width="80" relative="1" as="geometry">
            <mxPoint x="389" y="279" as="sourcePoint" />
            <mxPoint x="510" y="358" as="targetPoint" />
          </mxGeometry>
        </mxCell>
        <mxCell id="zELeLXxtpLHe7ZYoBTOC-25" value="rmi.registry.Registry" style="shape=umlLifeline;perimeter=lifelinePerimeter;container=1;collapsible=0;recursiveResize=0;rounded=0;shadow=0;strokeWidth=1;" vertex="1" parent="1">
          <mxGeometry x="680" y="180" width="110" height="860" as="geometry" />
        </mxCell>
        <mxCell id="zELeLXxtpLHe7ZYoBTOC-32" value="" style="points=[];perimeter=orthogonalPerimeter;rounded=0;shadow=0;strokeWidth=1;" vertex="1" parent="zELeLXxtpLHe7ZYoBTOC-25">
          <mxGeometry x="50" y="70" width="10" height="100" as="geometry" />
        </mxCell>
        <mxCell id="zELeLXxtpLHe7ZYoBTOC-28" value="LocateRegistry.getRegistry(hostname,port)" style="html=1;verticalAlign=bottom;endArrow=block;rounded=0;entryX=-0.012;entryY=0.009;entryDx=0;entryDy=0;entryPerimeter=0;" edge="1" parent="1" target="zELeLXxtpLHe7ZYoBTOC-25">
          <mxGeometry x="0.1753" y="1" width="80" relative="1" as="geometry">
            <mxPoint x="390" y="189" as="sourcePoint" />
            <mxPoint x="680" y="180" as="targetPoint" />
            <mxPoint as="offset" />
          </mxGeometry>
        </mxCell>
        <mxCell id="zELeLXxtpLHe7ZYoBTOC-29" value="registry" style="html=1;verticalAlign=bottom;endArrow=open;dashed=1;endSize=8;rounded=0;entryX=0.969;entryY=0.156;entryDx=0;entryDy=0;entryPerimeter=0;" edge="1" parent="1" source="zELeLXxtpLHe7ZYoBTOC-25" target="zELeLXxtpLHe7ZYoBTOC-27">
          <mxGeometry relative="1" as="geometry">
            <mxPoint x="510" y="350" as="sourcePoint" />
            <mxPoint x="430" y="350" as="targetPoint" />
          </mxGeometry>
        </mxCell>
        <mxCell id="zELeLXxtpLHe7ZYoBTOC-31" value="lookup(name)" style="html=1;verticalAlign=bottom;endArrow=block;rounded=0;entryX=-0.238;entryY=0.034;entryDx=0;entryDy=0;entryPerimeter=0;exitX=1.176;exitY=0.319;exitDx=0;exitDy=0;exitPerimeter=0;" edge="1" parent="1" source="zELeLXxtpLHe7ZYoBTOC-27" target="zELeLXxtpLHe7ZYoBTOC-32">
          <mxGeometry x="0.1753" y="1" width="80" relative="1" as="geometry">
            <mxPoint x="389" y="254.82999999999998" as="sourcePoint" />
            <mxPoint x="680" y="249.99999999999994" as="targetPoint" />
            <mxPoint as="offset" />
          </mxGeometry>
        </mxCell>
        <mxCell id="zELeLXxtpLHe7ZYoBTOC-34" value="result" style="html=1;verticalAlign=bottom;endArrow=open;dashed=1;endSize=8;rounded=0;exitX=0.997;exitY=0.076;exitDx=0;exitDy=0;exitPerimeter=0;" edge="1" parent="1" source="zELeLXxtpLHe7ZYoBTOC-21" target="zELeLXxtpLHe7ZYoBTOC-32">
          <mxGeometry relative="1" as="geometry">
            <mxPoint x="510" y="390" as="sourcePoint" />
            <mxPoint x="430" y="390" as="targetPoint" />
          </mxGeometry>
        </mxCell>
        <mxCell id="zELeLXxtpLHe7ZYoBTOC-35" value="lookupResult" style="html=1;verticalAlign=bottom;endArrow=open;dashed=1;endSize=8;rounded=0;exitX=-0.1;exitY=0.979;exitDx=0;exitDy=0;exitPerimeter=0;" edge="1" parent="1" source="zELeLXxtpLHe7ZYoBTOC-32">
          <mxGeometry relative="1" as="geometry">
            <mxPoint x="679.6699999999996" y="326.7599999999999" as="sourcePoint" />
            <mxPoint x="390" y="348" as="targetPoint" />
          </mxGeometry>
        </mxCell>
        <mxCell id="zELeLXxtpLHe7ZYoBTOC-36" value="findCodeLabelErrorCredentials(...)" style="html=1;verticalAlign=bottom;endArrow=block;rounded=0;entryX=-0.031;entryY=0.006;entryDx=0;entryDy=0;entryPerimeter=0;" edge="1" parent="1" source="zELeLXxtpLHe7ZYoBTOC-18" target="zELeLXxtpLHe7ZYoBTOC-22">
          <mxGeometry width="80" relative="1" as="geometry">
            <mxPoint x="400" y="520" as="sourcePoint" />
            <mxPoint x="605.48" y="520" as="targetPoint" />
          </mxGeometry>
        </mxCell>
        <mxCell id="zELeLXxtpLHe7ZYoBTOC-37" value="QueryResultDTO" style="html=1;verticalAlign=bottom;endArrow=open;dashed=1;endSize=8;rounded=0;entryX=1.245;entryY=0.739;entryDx=0;entryDy=0;entryPerimeter=0;" edge="1" parent="1" source="zELeLXxtpLHe7ZYoBTOC-22" target="zELeLXxtpLHe7ZYoBTOC-18">
          <mxGeometry relative="1" as="geometry">
            <mxPoint x="360" y="530" as="sourcePoint" />
            <mxPoint x="280" y="530" as="targetPoint" />
          </mxGeometry>
        </mxCell>
        <mxCell id="zELeLXxtpLHe7ZYoBTOC-38" value="QueryResultDTO" style="html=1;verticalAlign=bottom;endArrow=open;dashed=1;endSize=8;rounded=0;exitX=0.141;exitY=1;exitDx=0;exitDy=0;exitPerimeter=0;" edge="1" parent="1" source="zELeLXxtpLHe7ZYoBTOC-18" target="zELeLXxtpLHe7ZYoBTOC-11">
          <mxGeometry relative="1" as="geometry">
            <mxPoint x="620" y="576.51" as="sourcePoint" />
            <mxPoint x="402.4499999999998" y="576.51" as="targetPoint" />
          </mxGeometry>
        </mxCell>
        <mxCell id="zELeLXxtpLHe7ZYoBTOC-40" value="findCodeLabelErrorCredentials(...)" style="html=1;verticalAlign=bottom;endArrow=block;rounded=0;" edge="1" parent="1" target="zELeLXxtpLHe7ZYoBTOC-39" source="zELeLXxtpLHe7ZYoBTOC-11">
          <mxGeometry width="80" relative="1" as="geometry">
            <mxPoint x="179.99999999999997" y="671.28" as="sourcePoint" />
            <mxPoint x="335.48" y="670" as="targetPoint" />
          </mxGeometry>
        </mxCell>
        <mxCell id="zELeLXxtpLHe7ZYoBTOC-43" value="QueryResultDTO" style="html=1;verticalAlign=bottom;endArrow=open;dashed=1;endSize=8;rounded=0;exitX=0.141;exitY=1;exitDx=0;exitDy=0;exitPerimeter=0;" edge="1" parent="1" source="zELeLXxtpLHe7ZYoBTOC-39" target="zELeLXxtpLHe7ZYoBTOC-11">
          <mxGeometry relative="1" as="geometry">
            <mxPoint x="625.48" y="746.51" as="sourcePoint" />
            <mxPoint x="180.48" y="760" as="targetPoint" />
          </mxGeometry>
        </mxCell>
        <mxCell id="zELeLXxtpLHe7ZYoBTOC-41" value="findCodeLabelErrorCredentials(...)" style="html=1;verticalAlign=bottom;endArrow=block;rounded=0;entryX=0.038;entryY=0.028;entryDx=0;entryDy=0;entryPerimeter=0;" edge="1" parent="1" source="zELeLXxtpLHe7ZYoBTOC-39" target="zELeLXxtpLHe7ZYoBTOC-44">
          <mxGeometry width="80" relative="1" as="geometry">
            <mxPoint x="405.48" y="690" as="sourcePoint" />
            <mxPoint x="615.1700000000001" y="690.288" as="targetPoint" />
          </mxGeometry>
        </mxCell>
        <mxCell id="zELeLXxtpLHe7ZYoBTOC-42" value="QueryResultDTO" style="html=1;verticalAlign=bottom;endArrow=open;dashed=1;endSize=8;rounded=0;entryX=1.245;entryY=0.739;entryDx=0;entryDy=0;entryPerimeter=0;exitX=0.176;exitY=0.962;exitDx=0;exitDy=0;exitPerimeter=0;" edge="1" parent="1" target="zELeLXxtpLHe7ZYoBTOC-39" source="zELeLXxtpLHe7ZYoBTOC-44">
          <mxGeometry relative="1" as="geometry">
            <mxPoint x="615.48" y="736.51" as="sourcePoint" />
            <mxPoint x="285.48" y="700" as="targetPoint" />
          </mxGeometry>
        </mxCell>
        <mxCell id="zELeLXxtpLHe7ZYoBTOC-47" value="hset(transactionName,attribute,value)" style="html=1;verticalAlign=bottom;endArrow=block;rounded=0;" edge="1" parent="1" source="zELeLXxtpLHe7ZYoBTOC-11" target="zELeLXxtpLHe7ZYoBTOC-46">
          <mxGeometry width="80" relative="1" as="geometry">
            <mxPoint x="150" y="820" as="sourcePoint" />
            <mxPoint x="230" y="820" as="targetPoint" />
          </mxGeometry>
        </mxCell>
        <mxCell id="zELeLXxtpLHe7ZYoBTOC-48" value="1,...n" style="text;html=1;align=center;verticalAlign=middle;resizable=0;points=[];autosize=1;strokeColor=none;fillColor=none;" vertex="1" parent="1">
          <mxGeometry x="120" y="800" width="40" height="20" as="geometry" />
        </mxCell>
        <mxCell id="zELeLXxtpLHe7ZYoBTOC-50" value="" style="points=[];perimeter=orthogonalPerimeter;rounded=0;shadow=0;strokeWidth=1;" vertex="1" parent="1">
          <mxGeometry x="-80" y="910" width="10" height="50" as="geometry" />
        </mxCell>
        <mxCell id="zELeLXxtpLHe7ZYoBTOC-51" value="hset(transactionName,attribute,value)" style="html=1;verticalAlign=bottom;endArrow=block;rounded=0;" edge="1" parent="1" target="zELeLXxtpLHe7ZYoBTOC-50">
          <mxGeometry width="80" relative="1" as="geometry">
            <mxPoint x="165" y="910" as="sourcePoint" />
            <mxPoint x="230" y="930" as="targetPoint" />
          </mxGeometry>
        </mxCell>
        <mxCell id="zELeLXxtpLHe7ZYoBTOC-52" value="1,...n" style="text;html=1;align=center;verticalAlign=middle;resizable=0;points=[];autosize=1;strokeColor=none;fillColor=none;" vertex="1" parent="1">
          <mxGeometry x="120" y="910" width="40" height="20" as="geometry" />
        </mxCell>
        <mxCell id="zELeLXxtpLHe7ZYoBTOC-53" value="ERROR as status" style="text;html=1;align=center;verticalAlign=middle;resizable=0;points=[];autosize=1;strokeColor=none;fillColor=none;" vertex="1" parent="1">
          <mxGeometry x="-25" y="910" width="110" height="20" as="geometry" />
        </mxCell>
      </root>
    </mxGraphModel>
  </diagram>
</mxfile>
